<svg width="948" height="1951" viewBox="0 0 948 1951" fill="none" xmlns="http://www.w3.org/2000/svg">
<path d="M25 1.5C28.381 10.1769 31.8825 18.6887 35.5 27.0395M25 1028C31.0677 1005.62 48.8719 985.33 75.5 966.638C88.1211 957.778 102.724 949.279 119 941.089M25 1028C20.9114 1043.08 21.0795 1059.15 25 1075.98M25 1028V1075.98M880 1600C902.328 1603.12 918.446 1607.81 929 1613.81M880 1600L929 1613.81M880 1600C859.575 1597.15 837.633 1592.85 814.5 1587.26C794.643 1582.46 773.907 1576.7 752.5 1570.09C738.759 1565.84 724.741 1561.24 710.5 1556.32M0.999985 1947.5C22.0038 1948.02 44.2041 1947.58 67.3603 1946.26C101.123 1944.35 136.918 1940.58 174 1935.27C184.732 1933.74 195.571 1932.07 206.5 1930.28M35.5 27.0395C40.9197 39.5505 46.5995 51.6997 52.5238 63.5M35.5 27.0395L52.5238 63.5M52.5238 63.5C60.8099 80.0044 69.5743 95.8261 78.7743 111M78.7743 111C87.1809 124.865 95.9511 138.19 105.052 151M78.7743 111L105.052 151M105.052 151C115.468 165.66 126.317 179.647 137.551 193M137.551 193C147.573 204.912 157.901 216.321 168.5 227.253M137.551 193L168.5 227.253M168.5 227.253C176.195 235.189 184.033 242.875 192 250.321M192 250.321C202.133 259.79 212.475 268.871 223 277.586M192 250.321L223 277.586M223 277.586C233.171 286.008 243.513 294.088 254 301.847M254 301.847C265.827 310.597 277.838 318.937 290 326.898M254 301.847L290 326.898M290 326.898C302.031 334.774 314.209 342.277 326.5 349.437M326.5 349.437C339.718 357.136 353.065 364.438 366.5 371.376M326.5 349.437L366.5 371.376M366.5 371.376C381.082 378.907 395.767 386.01 410.5 392.73M410.5 392.73C424.97 399.33 439.488 405.56 454 411.463M410.5 392.73L454 411.463M454 411.463C466.682 416.621 479.36 421.529 492 426.215M492 426.215C507.917 432.115 523.773 437.664 539.5 442.916M492 426.215L539.5 442.916M539.5 442.916C553.621 447.632 567.638 452.11 581.5 456.389M581.5 456.389C598.771 461.721 615.803 466.745 632.5 471.541M581.5 456.389L632.5 471.541M632.5 471.541C648.503 476.137 664.198 480.524 679.5 484.769M679.5 484.769C694.575 488.951 709.269 492.996 723.5 496.971M679.5 484.769L723.5 496.971M723.5 496.971C738.549 501.174 753.081 505.298 767 509.422M767 509.422C783.781 514.393 799.67 519.363 814.5 524.469M767 509.422L814.5 524.469M814.5 524.469C830.265 529.897 844.832 535.478 858 541.378C899.332 559.897 926.872 581.552 934.374 611.439M934.374 611.439C935.112 614.378 935.656 617.397 936 620.5C937.57 634.65 933.482 647.936 924.6 660.5M934.374 611.439L924.6 660.5M924.6 660.5C919.665 667.481 913.249 674.24 905.5 680.799M905.5 680.799C899.587 685.804 892.899 690.694 885.5 695.479M905.5 680.799L885.5 695.479M885.5 695.479C879.176 699.568 872.333 703.581 865.012 707.524M865.012 707.524C858.24 711.172 851.058 714.761 843.5 718.294M865.012 707.524L843.5 718.294M843.5 718.294C831.128 724.079 817.747 729.717 803.5 735.233M803.5 735.233C791.884 739.73 779.691 744.146 767 748.494M803.5 735.233L767 748.494M767 748.494C753.067 753.267 738.533 757.957 723.5 762.58M723.5 762.58C709.252 766.963 694.557 771.286 679.5 775.564M723.5 762.58L679.5 775.564M679.5 775.564C667.708 778.915 655.694 782.238 643.5 785.54M643.5 785.54C630.845 788.967 617.996 792.372 605 795.763M643.5 785.54L605 795.763M605 795.763C590.658 799.504 576.137 803.228 561.5 806.945M561.5 806.945C546.434 810.77 531.244 814.587 516 818.408M561.5 806.945L516 818.408M516 818.408C501.363 822.077 486.677 825.749 472 829.434M472 829.434C458.14 832.913 444.29 836.405 430.5 839.916M472 829.434L430.5 839.916M430.5 839.916C417.6 843.201 404.753 846.503 392 849.83M392 849.83C379.224 853.163 366.544 856.52 354 859.909M392 849.83L354 859.909M354 859.909C339.804 863.744 325.784 867.619 312 871.545M312 871.545C298.418 875.413 285.065 879.329 272 883.305M312 871.545L272 883.305M272 883.305C259.031 887.251 246.345 891.254 234 895.324M234 895.324C219.5 900.105 205.469 904.979 192 909.96M234 895.324L192 909.96M192 909.96C178.028 915.127 164.66 920.409 152 925.825M152 925.825C140.377 930.796 129.35 935.88 119 941.089M152 925.825L119 941.089M25 1075.98C28.1204 1089.38 33.6179 1103.26 41.2383 1117.5M41.2383 1117.5C48.226 1130.56 56.9987 1143.92 67.3603 1157.5M41.2383 1117.5L67.3603 1157.5M67.3603 1157.5C76.9069 1170.01 87.8024 1182.7 99.8932 1195.5M99.8932 1195.5C109.238 1205.39 119.297 1215.35 130 1225.34M99.8932 1195.5L130 1225.34M130 1225.34C143.667 1238.1 158.383 1250.91 174 1263.71C184.445 1272.27 195.293 1280.82 206.5 1289.34M206.5 1289.34C220.47 1299.96 234.999 1310.54 250 1321.04M206.5 1289.34L250 1321.04M250 1321.04C262.997 1330.14 276.349 1339.17 290 1348.12M290 1348.12C308.972 1360.55 328.521 1372.81 348.5 1384.83M290 1348.12L348.5 1384.83M348.5 1384.83C362.799 1393.44 377.317 1401.92 392 1410.25M392 1410.25C405.868 1418.12 419.883 1425.86 434 1433.45M392 1410.25L434 1433.45M434 1433.45C450.223 1442.16 466.58 1450.67 483 1458.95M483 1458.95C497.633 1466.33 512.316 1473.52 527 1480.5M483 1458.95L527 1480.5M527 1480.5C540.846 1487.08 554.693 1493.47 568.5 1499.66M568.5 1499.66C583.229 1506.26 597.913 1512.62 612.5 1518.73M568.5 1499.66L612.5 1518.73M612.5 1518.73C625.928 1524.35 639.275 1529.76 652.5 1534.93M652.5 1534.93C672.143 1542.6 691.519 1549.75 710.5 1556.32M652.5 1534.93L710.5 1556.32M929 1613.81C946.193 1623.6 948.62 1636.87 939.069 1652.5M939.069 1652.5C933.542 1661.54 924.006 1671.38 911 1681.79M939.069 1652.5L911 1681.79M911 1681.79C902.2 1688.83 891.81 1696.14 880 1703.63M880 1703.63C869.57 1710.26 858.032 1717.03 845.5 1723.91M880 1703.63L845.5 1723.91M845.5 1723.91C834.564 1729.91 822.872 1736 810.5 1742.13M810.5 1742.13C799.061 1747.8 787.041 1753.51 774.5 1759.24M810.5 1742.13L774.5 1759.24M774.5 1759.24C761.072 1765.38 747.047 1771.53 732.5 1777.68M732.5 1777.68C718.464 1783.61 703.942 1789.53 689 1795.41M732.5 1777.68L689 1795.41M689 1795.41C677.089 1800.1 664.911 1804.77 652.5 1809.4M652.5 1809.4C639.412 1814.29 626.066 1819.13 612.5 1823.92M652.5 1809.4L612.5 1823.92M612.5 1823.92C598.066 1829.01 583.383 1834.04 568.5 1838.98M568.5 1838.98C554.824 1843.53 540.978 1848 527 1852.39M568.5 1838.98L527 1852.39M527 1852.39C512.463 1856.95 497.782 1861.42 483 1865.79M483 1865.79C466.771 1870.57 450.419 1875.23 434 1879.74M483 1865.79L434 1879.74M434 1879.74C423.191 1882.7 412.352 1885.6 401.5 1888.42M401.5 1888.42C388.677 1891.76 375.835 1895 363 1898.12M401.5 1888.42L363 1898.12M363 1898.12C350.318 1901.21 337.643 1904.19 325 1907.04M325 1907.04C313.299 1909.69 301.626 1912.23 290 1914.66M325 1907.04L290 1914.66M290 1914.66C276.593 1917.46 263.25 1920.12 250 1922.62M250 1922.62C235.372 1925.37 220.859 1927.93 206.5 1930.28M250 1922.62L206.5 1930.28" stroke="white" stroke-width="6" stroke-dasharray="11 11"/>
</svg>
